<svg width="350" height="350" viewBox="0 0 350 350" fill="none" xmlns="http://www.w3.org/2000/svg">
<rect width="350" height="350" fill="white"/>
<path d="M226.972 85.7922L207.23 83.974L226.712 68H229.569L241.648 135.273L236.973 136.442L203.334 90.0779L218.919 108.26C210.26 98.9957 202.381 92.8485 195.281 89.8182C188.181 86.7879 181.124 85.2727 174.11 85.2727C164.153 85.2727 157.226 87.3939 153.329 91.6364C149.433 95.7922 147.485 100.987 147.485 107.221C147.485 111.983 148.74 115.965 151.251 119.169C153.849 122.372 157.356 125.143 161.772 127.481C166.274 129.732 171.383 131.81 177.098 133.714C182.899 135.619 189.003 137.61 195.411 139.688C201.818 141.766 208.226 144.234 214.633 147.091C221.041 149.948 226.885 153.584 232.167 158C237.536 162.416 241.822 167.957 245.025 174.623C248.316 181.29 249.961 189.515 249.961 199.299C249.961 213.758 245.978 226.139 238.012 236.442C230.046 246.658 219.395 254.494 206.061 259.948C192.813 265.316 178.093 268 161.901 268C152.204 268 143.112 267.481 134.626 266.442C126.141 265.489 117.222 263.411 107.871 260.208L98 204.104H102.676L141.9 260.987L114.885 243.584C123.37 248 131.076 251.333 138.003 253.584C144.93 255.749 152.074 256.831 159.434 256.831C170.171 256.831 178.613 255.446 184.761 252.675C190.908 249.905 195.281 246.225 197.879 241.636C200.476 237.048 201.775 231.983 201.775 226.442C201.775 220.294 200.26 215.229 197.229 211.247C194.199 207.264 190.129 203.974 185.02 201.377C179.912 198.693 174.24 196.355 168.006 194.364C161.858 192.372 155.624 190.294 149.303 188.13C142.982 185.965 136.921 183.498 131.12 180.727C125.318 177.87 120.166 174.407 115.664 170.338C111.161 166.182 107.568 161.117 104.884 155.143C102.286 149.082 100.987 141.766 100.987 133.195C100.987 121.247 104.191 110.9 110.598 102.156C117.006 93.3247 126.054 86.5281 137.744 81.7662C149.433 76.9178 163.114 74.4935 178.786 74.4935C187.964 74.4935 196.233 75.4026 203.593 77.2208C210.953 79.039 218.746 81.8961 226.972 85.7922Z" fill="black"/>
<rect x="2" y="2" width="346" height="346" stroke="white" stroke-opacity="0.3" stroke-width="4"/>
</svg>
