<svg width="350" height="350" viewBox="0 0 350 350" fill="none" xmlns="http://www.w3.org/2000/svg">
<path fill-rule="evenodd" clip-rule="evenodd" d="M268.569 136.421C269.218 137.971 268.405 139.727 266.824 140.294L238.08 150.584C236.539 151.136 234.846 150.346 234.192 148.845C225.099 127.969 204.283 113.375 180.059 113.375C147.464 113.375 121.041 139.798 121.041 172.393C121.041 204.988 147.464 231.411 180.059 231.411C204.851 231.411 226.072 216.125 234.812 194.464C235.437 192.914 237.161 192.079 238.734 192.642L267.461 202.927C269.022 203.486 269.838 205.209 269.227 206.75C255.322 241.832 220.749 266.678 180.3 266.678C127.577 266.678 84.8369 224.465 84.8369 172.393C84.8369 120.321 127.577 78.1084 180.3 78.1084C220.125 78.1084 254.254 102.194 268.569 136.421Z" fill="#00FFB3"/>
<path fill-rule="evenodd" clip-rule="evenodd" d="M311.273 83.7739C311.897 84.6976 311.629 85.9514 310.689 86.5514L283.554 103.879C282.634 104.466 281.413 104.206 280.796 103.305C258.723 71.0945 221.661 49.9627 179.664 49.9627C112.002 49.9627 57.1513 104.814 57.1513 172.476C57.1513 240.138 112.002 294.988 179.664 294.988C222.244 294.988 259.75 273.267 281.706 240.3C282.317 239.382 283.55 239.111 284.479 239.704L311.629 257.041C312.561 257.636 312.834 258.877 312.224 259.801C283.837 302.81 235.076 331.188 179.688 331.188C92.0469 331.188 21 260.141 21 172.5C21 84.8589 92.0469 13.812 179.688 13.812C234.462 13.812 282.755 41.5638 311.273 83.7739Z" fill="#00FFB3"/>
<ellipse cx="180.675" cy="171.496" rx="31.1316" ry="30.1273" fill="#00FFB3"/>
</svg>
