<svg width="251" height="243" viewBox="0 0 251 243" fill="none" xmlns="http://www.w3.org/2000/svg">
<g clip-path="url(#clip0_1995_294)">
<path d="M2.40359 61.0577L119.001 100.834C119.507 101.007 119.848 101.483 119.848 102.018V240.203C119.848 241.06 119.005 241.663 118.194 241.387L1.59641 201.61C1.09024 201.437 0.75 200.962 0.75 200.427V62.2408C0.75 61.3839 1.5926 60.7811 2.40359 61.0577Z" fill="#00FFC3" fill-opacity="0.3" stroke="#00FFC3" stroke-width="1.5"/>
<path d="M248.587 61.0835L134.931 100.826C134.43 101.001 134.094 101.475 134.094 102.006V240.181C134.094 241.042 134.944 241.645 135.756 241.361L249.413 201.618C249.914 201.443 250.25 200.97 250.25 200.438V62.2634C250.25 61.4025 249.4 60.7993 248.587 61.0835Z" fill="#00FFC3" fill-opacity="0.3" stroke="#00FFC3" stroke-width="1.5"/>
<path d="M124.829 86.3234L9.21457 45.1653C7.44224 44.5343 7.44224 42.0279 9.21457 41.3969L124.829 0.238784C125.263 0.084342 125.737 0.0843425 126.171 0.238785L241.785 41.3969C243.558 42.0279 243.558 44.5343 241.785 45.1653L126.171 86.3234C125.737 86.4779 125.263 86.4779 124.829 86.3234Z" fill="#00FFC3" fill-opacity="0.3" stroke="#00FFC3" stroke-width="1.5"/>
</g>
<defs>
<clipPath id="clip0_1995_294">
<rect width="251" height="243" fill="white"/>
</clipPath>
</defs>
</svg>
